<svg xmlns="http://www.w3.org/2000/svg" xmlns:svg="http://www.w3.org/2000/svg" id="svg13995" width="153" height="40.5" version="1.1"><metadata id="metadata4"/><g id="layer1" transform="translate(0,-1011.862)" style="display:inline"><g id="silkscreen" transform="translate(-4.5014603,888.11336)" style="display:inline"><path id="path14906" d="m 9.0014603,159.74862 0,-31.5 65.2499997,0 0,4.5 13.5,0 0,-4.5 65.25,0 0,31.5 z" style="fill:none;stroke:#fff;stroke-width:1.25;stroke-linecap:butt;stroke-linejoin:miter;stroke-miterlimit:4;stroke-opacity:1;stroke-dasharray:none;display:inline"/><path id="path4994" d="m 132.75,134.55 2.25,-3.6 2.25,3.6 z" style="fill:#fff;fill-opacity:1;stroke:#fff;stroke-width:.44999999;stroke-linecap:butt;stroke-linejoin:miter;stroke-miterlimit:4;stroke-opacity:1;stroke-dasharray:none"/></g><g id="copper1" transform="translate(-4.5014603,996.11336)" style="fill:none;stroke:#f7bd13;stroke-opacity:1;display:inline"><path id="connector5pad" d="m 137.25,31.5 a 2.25,2.25 0 1 1 -4.5,0 2.25,2.25 0 1 1 4.5,0 z" transform="translate(-18,0)" style="fill:none;stroke:#f7bd13;stroke-width:1.79999995;stroke-linecap:round;stroke-linejoin:miter;stroke-miterlimit:4;stroke-opacity:1;stroke-dasharray:none;display:inline"/><path id="connector7pad" d="m 137.25,31.5 a 2.25,2.25 0 1 1 -4.5,0 2.25,2.25 0 1 1 4.5,0 z" transform="translate(-27,0)" style="fill:none;stroke:#f7bd13;stroke-width:1.79999995;stroke-linecap:round;stroke-linejoin:miter;stroke-miterlimit:4;stroke-opacity:1;stroke-dasharray:none;display:inline"/><path id="connector9pad" d="m 137.25,31.5 a 2.25,2.25 0 1 1 -4.5,0 2.25,2.25 0 1 1 4.5,0 z" transform="translate(-36,0)" style="fill:none;stroke:#f7bd13;stroke-width:1.79999995;stroke-linecap:round;stroke-linejoin:miter;stroke-miterlimit:4;stroke-opacity:1;stroke-dasharray:none;display:inline"/><path id="connector15pad" d="m 137.25,31.5 a 2.25,2.25 0 1 1 -4.5,0 2.25,2.25 0 1 1 4.5,0 z" transform="translate(-63,0)" style="fill:none;stroke:#f7bd13;stroke-width:1.79999995;stroke-linecap:round;stroke-linejoin:miter;stroke-miterlimit:4;stroke-opacity:1;stroke-dasharray:none;display:inline"/><path id="connector17pad" d="m 137.25,31.5 a 2.25,2.25 0 1 1 -4.5,0 2.25,2.25 0 1 1 4.5,0 z" transform="translate(-72,0)" style="fill:none;stroke:#f7bd13;stroke-width:1.79999995;stroke-linecap:round;stroke-linejoin:miter;stroke-miterlimit:4;stroke-opacity:1;stroke-dasharray:none;display:inline"/><path id="connector19pad" d="m 137.25,31.5 a 2.25,2.25 0 1 1 -4.5,0 2.25,2.25 0 1 1 4.5,0 z" transform="translate(-81,0)" style="fill:none;stroke:#f7bd13;stroke-width:1.79999995;stroke-linecap:round;stroke-linejoin:miter;stroke-miterlimit:4;stroke-opacity:1;stroke-dasharray:none;display:inline"/><path id="connector11pad" d="m 137.25,31.5 a 2.25,2.25 0 1 1 -4.5,0 2.25,2.25 0 1 1 4.5,0 z" transform="translate(-45,0)" style="fill:none;stroke:#f7bd13;stroke-width:1.79999995;stroke-linecap:round;stroke-linejoin:miter;stroke-miterlimit:4;stroke-opacity:1;stroke-dasharray:none;display:inline"/><path id="connector13pad" d="m 137.25,31.5 a 2.25,2.25 0 1 1 -4.5,0 2.25,2.25 0 1 1 4.5,0 z" transform="translate(-54,0)" style="fill:none;stroke:#f7bd13;stroke-width:1.79999995;stroke-linecap:round;stroke-linejoin:miter;stroke-miterlimit:4;stroke-opacity:1;stroke-dasharray:none;display:inline"/><path id="connector23pad" d="m 137.25,31.5 a 2.25,2.25 0 1 1 -4.5,0 2.25,2.25 0 1 1 4.5,0 z" transform="translate(-99,0)" style="fill:none;stroke:#f7bd13;stroke-width:1.79999995;stroke-linecap:round;stroke-linejoin:miter;stroke-miterlimit:4;stroke-opacity:1;stroke-dasharray:none;display:inline"/><path id="connector25pad" d="m 137.25,31.5 a 2.25,2.25 0 1 1 -4.5,0 2.25,2.25 0 1 1 4.5,0 z" transform="translate(-108,0)" style="fill:none;stroke:#f7bd13;stroke-width:1.79999995;stroke-linecap:round;stroke-linejoin:miter;stroke-miterlimit:4;stroke-opacity:1;stroke-dasharray:none;display:inline"/><path id="connector21pad" d="m 137.25,31.5 a 2.25,2.25 0 1 1 -4.5,0 2.25,2.25 0 1 1 4.5,0 z" transform="translate(-90,0)" style="fill:none;stroke:#f7bd13;stroke-width:1.79999995;stroke-linecap:round;stroke-linejoin:miter;stroke-miterlimit:4;stroke-opacity:1;stroke-dasharray:none;display:inline"/><path id="connector6pad" d="m 137.25,31.5 a 2.25,2.25 0 1 1 -4.5,0 2.25,2.25 0 1 1 4.5,0 z" transform="translate(-18,9)" style="fill:none;stroke:#f7bd13;stroke-width:1.79999995;stroke-linecap:round;stroke-linejoin:miter;stroke-miterlimit:4;stroke-opacity:1;stroke-dasharray:none;display:inline"/><path id="connector8pad" d="m 137.25,31.5 a 2.25,2.25 0 1 1 -4.5,0 2.25,2.25 0 1 1 4.5,0 z" transform="translate(-27,9)" style="fill:none;stroke:#f7bd13;stroke-width:1.79999995;stroke-linecap:round;stroke-linejoin:miter;stroke-miterlimit:4;stroke-opacity:1;stroke-dasharray:none;display:inline"/><path id="connector10pad" d="m 137.25,31.5 a 2.25,2.25 0 1 1 -4.5,0 2.25,2.25 0 1 1 4.5,0 z" transform="translate(-36,9)" style="fill:none;stroke:#f7bd13;stroke-width:1.79999995;stroke-linecap:round;stroke-linejoin:miter;stroke-miterlimit:4;stroke-opacity:1;stroke-dasharray:none;display:inline"/><path id="connector16pad" d="m 137.25,31.5 a 2.25,2.25 0 1 1 -4.5,0 2.25,2.25 0 1 1 4.5,0 z" transform="translate(-63,9)" style="fill:none;stroke:#f7bd13;stroke-width:1.79999995;stroke-linecap:round;stroke-linejoin:miter;stroke-miterlimit:4;stroke-opacity:1;stroke-dasharray:none;display:inline"/><path id="connector18pad" d="m 137.25,31.5 a 2.25,2.25 0 1 1 -4.5,0 2.25,2.25 0 1 1 4.5,0 z" transform="translate(-72,9)" style="fill:none;stroke:#f7bd13;stroke-width:1.79999995;stroke-linecap:round;stroke-linejoin:miter;stroke-miterlimit:4;stroke-opacity:1;stroke-dasharray:none;display:inline"/><path id="connector20pad" d="m 137.25,31.5 a 2.25,2.25 0 1 1 -4.5,0 2.25,2.25 0 1 1 4.5,0 z" transform="translate(-81,9)" style="fill:none;stroke:#f7bd13;stroke-width:1.79999995;stroke-linecap:round;stroke-linejoin:miter;stroke-miterlimit:4;stroke-opacity:1;stroke-dasharray:none;display:inline"/><path id="connector12pad" d="m 137.25,31.5 a 2.25,2.25 0 1 1 -4.5,0 2.25,2.25 0 1 1 4.5,0 z" transform="translate(-45,9)" style="fill:none;stroke:#f7bd13;stroke-width:1.79999995;stroke-linecap:round;stroke-linejoin:miter;stroke-miterlimit:4;stroke-opacity:1;stroke-dasharray:none;display:inline"/><path id="connector14pad" d="m 137.25,31.5 a 2.25,2.25 0 1 1 -4.5,0 2.25,2.25 0 1 1 4.5,0 z" transform="translate(-54,9)" style="fill:none;stroke:#f7bd13;stroke-width:1.79999995;stroke-linecap:round;stroke-linejoin:miter;stroke-miterlimit:4;stroke-opacity:1;stroke-dasharray:none;display:inline"/><path id="connector24pad" d="m 137.25,31.5 a 2.25,2.25 0 1 1 -4.5,0 2.25,2.25 0 1 1 4.5,0 z" transform="translate(-99,9)" style="fill:none;stroke:#f7bd13;stroke-width:1.79999995;stroke-linecap:round;stroke-linejoin:miter;stroke-miterlimit:4;stroke-opacity:1;stroke-dasharray:none;display:inline"/><path id="connector26pad" d="m 137.25,31.5 a 2.25,2.25 0 1 1 -4.5,0 2.25,2.25 0 1 1 4.5,0 z" transform="translate(-108,9)" style="fill:none;stroke:#f7bd13;stroke-width:1.79999995;stroke-linecap:round;stroke-linejoin:miter;stroke-miterlimit:4;stroke-opacity:1;stroke-dasharray:none;display:inline"/><path id="connector22pad" d="m 137.25,31.5 a 2.25,2.25 0 1 1 -4.5,0 2.25,2.25 0 1 1 4.5,0 z" transform="translate(-90,9)" style="fill:none;stroke:#f7bd13;stroke-width:1.79999995;stroke-linecap:round;stroke-linejoin:miter;stroke-miterlimit:4;stroke-opacity:1;stroke-dasharray:none;display:inline"/><path id="connector2pad" d="m 137.25,31.5 a 2.25,2.25 0 1 1 -4.5,0 2.25,2.25 0 1 1 4.5,0 z" transform="translate(0,9)" style="fill:none;stroke:#f7bd13;stroke-width:1.79999995;stroke-linecap:round;stroke-linejoin:miter;stroke-miterlimit:4;stroke-opacity:1;stroke-dasharray:none;display:inline"/><path id="connector4pad" d="m 137.25,31.5 a 2.25,2.25 0 1 1 -4.5,0 2.25,2.25 0 1 1 4.5,0 z" transform="translate(-9,9)" style="fill:none;stroke:#f7bd13;stroke-width:1.79999995;stroke-linecap:round;stroke-linejoin:miter;stroke-miterlimit:4;stroke-opacity:1;stroke-dasharray:none;display:inline"/><rect id="rect4984" width="4.5" height="4.5" x="132.75" y="29.25" style="fill:none;stroke:#f7bd13;stroke-width:1.79999995;stroke-linecap:round;stroke-linejoin:miter;stroke-miterlimit:4;stroke-opacity:1;stroke-dasharray:none;display:inline"/><path id="connector1pad" d="m 137.25,31.5 a 2.25,2.25 0 1 1 -4.5,0 2.25,2.25 0 1 1 4.5,0 z" style="fill:none;stroke:#f7bd13;stroke-width:1.79999995;stroke-linecap:round;stroke-linejoin:miter;stroke-miterlimit:4;stroke-opacity:1;stroke-dasharray:none"/><path id="connector3pad" d="m 137.25,31.5 a 2.25,2.25 0 1 1 -4.5,0 2.25,2.25 0 1 1 4.5,0 z" transform="translate(-9,0)" style="fill:none;stroke:#f7bd13;stroke-width:1.79999995;stroke-linecap:round;stroke-linejoin:miter;stroke-miterlimit:4;stroke-opacity:1;stroke-dasharray:none"/></g></g></svg>