<svg xmlns="http://www.w3.org/2000/svg" xmlns:xml="http://www.w3.org/XML/1998/namespace" id="Schematic" width="289.56" height="148.312" x="0" y="0" baseProfile="basic" version="1.1" viewBox="0 0 217.17 111.234" xml:space="preserve"><g><g><text font-family="DroidSans" font-size="18" transform="matrix(1 0 0 1 96.2756 90.6125) matrix(1 0 0 1 -21.6277 -53.7177)">LPD8806</text><text font-family="DroidSans" font-size="18" transform="matrix(1 0 0 1 96.2756 90.6125) matrix(1 0 0 1 -20.8108 -32.1171)">RGB LED</text><text font-family="DroidSans" font-size="18" transform="matrix(1 0 0 1 96.2756 90.6125) matrix(1 0 0 1 -7.2888 -10.5175)">Strip</text></g><text font-family="DroidSans" font-size="10" transform="matrix(1 0 0 1 176.8262 69.1233)">CO</text><text font-family="DroidSans" font-size="10" transform="matrix(1 0 0 1 172.8262 90.3811)">+5V</text><g><g><line x1="194.51" x2="215.77" y1="87.734" y2="87.734" fill="none" stroke="#000" stroke-linecap="round" stroke-linejoin="round" stroke-width="2.4"/></g><g><line x1="194.51" x2="215.77" y1="66.476" y2="66.476" fill="none" stroke="#000" stroke-linecap="round" stroke-linejoin="round" stroke-width="2.4"/></g></g><rect width="170.701" height="108.834" x="23.299" y="1" fill="none" stroke="#000" stroke-linecap="round" stroke-linejoin="round" stroke-width="2.4"/><g><g><line x1="194" x2="215.26" y1="45.218" y2="45.218" fill="none" stroke="#000" stroke-linecap="round" stroke-linejoin="round" stroke-width="2.4"/></g></g><g><g><line x1="194.51" x2="215.77" y1="23.96" y2="23.96" fill="none" stroke="#000" stroke-linecap="round" stroke-linejoin="round" stroke-width="2.4"/></g></g><text font-family="DroidSans" font-size="10" transform="matrix(1 0 0 1 175.8262 49.1233)">DO</text><text font-family="DroidSans" font-size="10" transform="matrix(1 0 0 1 168.8262 28.1233)">GND</text><g><g><line x1="1.51" x2="22.77" y1="87.734" y2="87.734" fill="none" stroke="#000" stroke-linecap="round" stroke-linejoin="round" stroke-width="2.4"/></g><g><line x1="1.51" x2="22.77" y1="66.476" y2="66.476" fill="none" stroke="#000" stroke-linecap="round" stroke-linejoin="round" stroke-width="2.4"/></g></g><g><g><line x1="1" x2="22.26" y1="45.218" y2="45.218" fill="none" stroke="#000" stroke-linecap="round" stroke-linejoin="round" stroke-width="2.4"/></g></g><g><g><line x1="1.51" x2="22.77" y1="23.96" y2="23.96" fill="none" stroke="#000" stroke-linecap="round" stroke-linejoin="round" stroke-width="2.4"/></g></g><text font-family="DroidSans" font-size="10" transform="matrix(1 0 0 1 26.8262 69.1233)">CI</text><text font-family="DroidSans" font-size="10" transform="matrix(1 0 0 1 26.8262 90.3811)">+5V</text><text font-family="DroidSans" font-size="10" transform="matrix(1 0 0 1 26.8262 49.1233)">DI</text><text font-family="DroidSans" font-size="10" transform="matrix(1 0 0 1 26.8262 28.1233)">GND</text></g></svg>